<?xml version="1.0" encoding="utf-8" standalone="no"?>
<!DOCTYPE svg PUBLIC "-//W3C//DTD SVG 1.1//EN"
  "http://www.w3.org/Graphics/SVG/1.1/DTD/svg11.dtd">
<!-- Created with matplotlib (http://matplotlib.org/) -->
<svg height="288pt" version="1.1" viewBox="0 0 432 288" width="432pt" xmlns="http://www.w3.org/2000/svg" xmlns:xlink="http://www.w3.org/1999/xlink">
 <defs>
  <style type="text/css">
*{stroke-linecap:butt;stroke-linejoin:round;}
  </style>
 </defs>
 <g id="figure_1">
  <g id="patch_1">
   <path d="M 0 288 
L 432 288 
L 432 0 
L 0 0 
z
" style="fill:#ffffff;"/>
  </g>
  <g id="axes_1">
   <g id="patch_2">
    <path d="M 54 252 
L 388.8 252 
L 388.8 34.56 
L 54 34.56 
z
" style="fill:#ffffff;"/>
   </g>
   <g id="matplotlib.axis_1">
    <g id="xtick_1">
     <g id="line2d_1">
      <path clip-path="url(#pceec6f30a2)" d="M 69.218182 252 
L 69.218182 34.56 
" style="fill:none;stroke:#b0b0b0;stroke-linecap:square;stroke-width:0.8;"/>
     </g>
     <g id="line2d_2">
      <defs>
       <path d="M 0 0 
L 0 3.5 
" id="m69fe1a90ea" style="stroke:#000000;stroke-width:0.8;"/>
      </defs>
      <g>
       <use style="stroke:#000000;stroke-width:0.8;" x="69.218182" xlink:href="#m69fe1a90ea" y="252"/>
      </g>
     </g>
     <g id="text_1">
      <!-- 0 -->
      <defs>
       <path d="M 31.78125 66.40625 
Q 24.171875 66.40625 20.328125 58.90625 
Q 16.5 51.421875 16.5 36.375 
Q 16.5 21.390625 20.328125 13.890625 
Q 24.171875 6.390625 31.78125 6.390625 
Q 39.453125 6.390625 43.28125 13.890625 
Q 47.125 21.390625 47.125 36.375 
Q 47.125 51.421875 43.28125 58.90625 
Q 39.453125 66.40625 31.78125 66.40625 
z
M 31.78125 74.21875 
Q 44.046875 74.21875 50.515625 64.515625 
Q 56.984375 54.828125 56.984375 36.375 
Q 56.984375 17.96875 50.515625 8.265625 
Q 44.046875 -1.421875 31.78125 -1.421875 
Q 19.53125 -1.421875 13.0625 8.265625 
Q 6.59375 17.96875 6.59375 36.375 
Q 6.59375 54.828125 13.0625 64.515625 
Q 19.53125 74.21875 31.78125 74.21875 
z
" id="DejaVuSans-30"/>
      </defs>
      <g transform="translate(66.036932 266.598437)scale(0.1 -0.1)">
       <use xlink:href="#DejaVuSans-30"/>
      </g>
     </g>
    </g>
    <g id="xtick_2">
     <g id="line2d_3">
      <path clip-path="url(#pceec6f30a2)" d="M 130.151843 252 
L 130.151843 34.56 
" style="fill:none;stroke:#b0b0b0;stroke-linecap:square;stroke-width:0.8;"/>
     </g>
     <g id="line2d_4">
      <g>
       <use style="stroke:#000000;stroke-width:0.8;" x="130.151843" xlink:href="#m69fe1a90ea" y="252"/>
      </g>
     </g>
     <g id="text_2">
      <!-- 200 -->
      <defs>
       <path d="M 19.1875 8.296875 
L 53.609375 8.296875 
L 53.609375 0 
L 7.328125 0 
L 7.328125 8.296875 
Q 12.9375 14.109375 22.625 23.890625 
Q 32.328125 33.6875 34.8125 36.53125 
Q 39.546875 41.84375 41.421875 45.53125 
Q 43.3125 49.21875 43.3125 52.78125 
Q 43.3125 58.59375 39.234375 62.25 
Q 35.15625 65.921875 28.609375 65.921875 
Q 23.96875 65.921875 18.8125 64.3125 
Q 13.671875 62.703125 7.8125 59.421875 
L 7.8125 69.390625 
Q 13.765625 71.78125 18.9375 73 
Q 24.125 74.21875 28.421875 74.21875 
Q 39.75 74.21875 46.484375 68.546875 
Q 53.21875 62.890625 53.21875 53.421875 
Q 53.21875 48.921875 51.53125 44.890625 
Q 49.859375 40.875 45.40625 35.40625 
Q 44.1875 33.984375 37.640625 27.21875 
Q 31.109375 20.453125 19.1875 8.296875 
z
" id="DejaVuSans-32"/>
      </defs>
      <g transform="translate(120.608093 266.598437)scale(0.1 -0.1)">
       <use xlink:href="#DejaVuSans-32"/>
       <use x="63.623047" xlink:href="#DejaVuSans-30"/>
       <use x="127.246094" xlink:href="#DejaVuSans-30"/>
      </g>
     </g>
    </g>
    <g id="xtick_3">
     <g id="line2d_5">
      <path clip-path="url(#pceec6f30a2)" d="M 191.085504 252 
L 191.085504 34.56 
" style="fill:none;stroke:#b0b0b0;stroke-linecap:square;stroke-width:0.8;"/>
     </g>
     <g id="line2d_6">
      <g>
       <use style="stroke:#000000;stroke-width:0.8;" x="191.085504" xlink:href="#m69fe1a90ea" y="252"/>
      </g>
     </g>
     <g id="text_3">
      <!-- 400 -->
      <defs>
       <path d="M 37.796875 64.3125 
L 12.890625 25.390625 
L 37.796875 25.390625 
z
M 35.203125 72.90625 
L 47.609375 72.90625 
L 47.609375 25.390625 
L 58.015625 25.390625 
L 58.015625 17.1875 
L 47.609375 17.1875 
L 47.609375 0 
L 37.796875 0 
L 37.796875 17.1875 
L 4.890625 17.1875 
L 4.890625 26.703125 
z
" id="DejaVuSans-34"/>
      </defs>
      <g transform="translate(181.541754 266.598437)scale(0.1 -0.1)">
       <use xlink:href="#DejaVuSans-34"/>
       <use x="63.623047" xlink:href="#DejaVuSans-30"/>
       <use x="127.246094" xlink:href="#DejaVuSans-30"/>
      </g>
     </g>
    </g>
    <g id="xtick_4">
     <g id="line2d_7">
      <path clip-path="url(#pceec6f30a2)" d="M 252.019165 252 
L 252.019165 34.56 
" style="fill:none;stroke:#b0b0b0;stroke-linecap:square;stroke-width:0.8;"/>
     </g>
     <g id="line2d_8">
      <g>
       <use style="stroke:#000000;stroke-width:0.8;" x="252.019165" xlink:href="#m69fe1a90ea" y="252"/>
      </g>
     </g>
     <g id="text_4">
      <!-- 600 -->
      <defs>
       <path d="M 33.015625 40.375 
Q 26.375 40.375 22.484375 35.828125 
Q 18.609375 31.296875 18.609375 23.390625 
Q 18.609375 15.53125 22.484375 10.953125 
Q 26.375 6.390625 33.015625 6.390625 
Q 39.65625 6.390625 43.53125 10.953125 
Q 47.40625 15.53125 47.40625 23.390625 
Q 47.40625 31.296875 43.53125 35.828125 
Q 39.65625 40.375 33.015625 40.375 
z
M 52.59375 71.296875 
L 52.59375 62.3125 
Q 48.875 64.0625 45.09375 64.984375 
Q 41.3125 65.921875 37.59375 65.921875 
Q 27.828125 65.921875 22.671875 59.328125 
Q 17.53125 52.734375 16.796875 39.40625 
Q 19.671875 43.65625 24.015625 45.921875 
Q 28.375 48.1875 33.59375 48.1875 
Q 44.578125 48.1875 50.953125 41.515625 
Q 57.328125 34.859375 57.328125 23.390625 
Q 57.328125 12.15625 50.6875 5.359375 
Q 44.046875 -1.421875 33.015625 -1.421875 
Q 20.359375 -1.421875 13.671875 8.265625 
Q 6.984375 17.96875 6.984375 36.375 
Q 6.984375 53.65625 15.1875 63.9375 
Q 23.390625 74.21875 37.203125 74.21875 
Q 40.921875 74.21875 44.703125 73.484375 
Q 48.484375 72.75 52.59375 71.296875 
z
" id="DejaVuSans-36"/>
      </defs>
      <g transform="translate(242.475415 266.598437)scale(0.1 -0.1)">
       <use xlink:href="#DejaVuSans-36"/>
       <use x="63.623047" xlink:href="#DejaVuSans-30"/>
       <use x="127.246094" xlink:href="#DejaVuSans-30"/>
      </g>
     </g>
    </g>
    <g id="xtick_5">
     <g id="line2d_9">
      <path clip-path="url(#pceec6f30a2)" d="M 312.952826 252 
L 312.952826 34.56 
" style="fill:none;stroke:#b0b0b0;stroke-linecap:square;stroke-width:0.8;"/>
     </g>
     <g id="line2d_10">
      <g>
       <use style="stroke:#000000;stroke-width:0.8;" x="312.952826" xlink:href="#m69fe1a90ea" y="252"/>
      </g>
     </g>
     <g id="text_5">
      <!-- 800 -->
      <defs>
       <path d="M 31.78125 34.625 
Q 24.75 34.625 20.71875 30.859375 
Q 16.703125 27.09375 16.703125 20.515625 
Q 16.703125 13.921875 20.71875 10.15625 
Q 24.75 6.390625 31.78125 6.390625 
Q 38.8125 6.390625 42.859375 10.171875 
Q 46.921875 13.96875 46.921875 20.515625 
Q 46.921875 27.09375 42.890625 30.859375 
Q 38.875 34.625 31.78125 34.625 
z
M 21.921875 38.8125 
Q 15.578125 40.375 12.03125 44.71875 
Q 8.5 49.078125 8.5 55.328125 
Q 8.5 64.0625 14.71875 69.140625 
Q 20.953125 74.21875 31.78125 74.21875 
Q 42.671875 74.21875 48.875 69.140625 
Q 55.078125 64.0625 55.078125 55.328125 
Q 55.078125 49.078125 51.53125 44.71875 
Q 48 40.375 41.703125 38.8125 
Q 48.828125 37.15625 52.796875 32.3125 
Q 56.78125 27.484375 56.78125 20.515625 
Q 56.78125 9.90625 50.3125 4.234375 
Q 43.84375 -1.421875 31.78125 -1.421875 
Q 19.734375 -1.421875 13.25 4.234375 
Q 6.78125 9.90625 6.78125 20.515625 
Q 6.78125 27.484375 10.78125 32.3125 
Q 14.796875 37.15625 21.921875 38.8125 
z
M 18.3125 54.390625 
Q 18.3125 48.734375 21.84375 45.5625 
Q 25.390625 42.390625 31.78125 42.390625 
Q 38.140625 42.390625 41.71875 45.5625 
Q 45.3125 48.734375 45.3125 54.390625 
Q 45.3125 60.0625 41.71875 63.234375 
Q 38.140625 66.40625 31.78125 66.40625 
Q 25.390625 66.40625 21.84375 63.234375 
Q 18.3125 60.0625 18.3125 54.390625 
z
" id="DejaVuSans-38"/>
      </defs>
      <g transform="translate(303.409076 266.598437)scale(0.1 -0.1)">
       <use xlink:href="#DejaVuSans-38"/>
       <use x="63.623047" xlink:href="#DejaVuSans-30"/>
       <use x="127.246094" xlink:href="#DejaVuSans-30"/>
      </g>
     </g>
    </g>
    <g id="xtick_6">
     <g id="line2d_11">
      <path clip-path="url(#pceec6f30a2)" d="M 373.886486 252 
L 373.886486 34.56 
" style="fill:none;stroke:#b0b0b0;stroke-linecap:square;stroke-width:0.8;"/>
     </g>
     <g id="line2d_12">
      <g>
       <use style="stroke:#000000;stroke-width:0.8;" x="373.886486" xlink:href="#m69fe1a90ea" y="252"/>
      </g>
     </g>
     <g id="text_6">
      <!-- 1000 -->
      <defs>
       <path d="M 12.40625 8.296875 
L 28.515625 8.296875 
L 28.515625 63.921875 
L 10.984375 60.40625 
L 10.984375 69.390625 
L 28.421875 72.90625 
L 38.28125 72.90625 
L 38.28125 8.296875 
L 54.390625 8.296875 
L 54.390625 0 
L 12.40625 0 
z
" id="DejaVuSans-31"/>
      </defs>
      <g transform="translate(361.161486 266.598437)scale(0.1 -0.1)">
       <use xlink:href="#DejaVuSans-31"/>
       <use x="63.623047" xlink:href="#DejaVuSans-30"/>
       <use x="127.246094" xlink:href="#DejaVuSans-30"/>
       <use x="190.869141" xlink:href="#DejaVuSans-30"/>
      </g>
     </g>
    </g>
   </g>
   <g id="matplotlib.axis_2">
    <g id="ytick_1">
     <g id="line2d_13">
      <path clip-path="url(#pceec6f30a2)" d="M 54 242.116364 
L 388.8 242.116364 
" style="fill:none;stroke:#b0b0b0;stroke-linecap:square;stroke-width:0.8;"/>
     </g>
     <g id="line2d_14">
      <defs>
       <path d="M 0 0 
L -3.5 0 
" id="mb6cdd6933c" style="stroke:#000000;stroke-width:0.8;"/>
      </defs>
      <g>
       <use style="stroke:#000000;stroke-width:0.8;" x="54" xlink:href="#mb6cdd6933c" y="242.116364"/>
      </g>
     </g>
     <g id="text_7">
      <!-- −10 -->
      <defs>
       <path d="M 10.59375 35.5 
L 73.1875 35.5 
L 73.1875 27.203125 
L 10.59375 27.203125 
z
" id="DejaVuSans-2212"/>
      </defs>
      <g transform="translate(25.895312 245.915582)scale(0.1 -0.1)">
       <use xlink:href="#DejaVuSans-2212"/>
       <use x="83.789062" xlink:href="#DejaVuSans-31"/>
       <use x="147.412109" xlink:href="#DejaVuSans-30"/>
      </g>
     </g>
    </g>
    <g id="ytick_2">
     <g id="line2d_15">
      <path clip-path="url(#pceec6f30a2)" d="M 54 210.233666 
L 388.8 210.233666 
" style="fill:none;stroke:#b0b0b0;stroke-linecap:square;stroke-width:0.8;"/>
     </g>
     <g id="line2d_16">
      <g>
       <use style="stroke:#000000;stroke-width:0.8;" x="54" xlink:href="#mb6cdd6933c" y="210.233666"/>
      </g>
     </g>
     <g id="text_8">
      <!-- 0 -->
      <g transform="translate(40.6375 214.032884)scale(0.1 -0.1)">
       <use xlink:href="#DejaVuSans-30"/>
      </g>
     </g>
    </g>
    <g id="ytick_3">
     <g id="line2d_17">
      <path clip-path="url(#pceec6f30a2)" d="M 54 178.350968 
L 388.8 178.350968 
" style="fill:none;stroke:#b0b0b0;stroke-linecap:square;stroke-width:0.8;"/>
     </g>
     <g id="line2d_18">
      <g>
       <use style="stroke:#000000;stroke-width:0.8;" x="54" xlink:href="#mb6cdd6933c" y="178.350968"/>
      </g>
     </g>
     <g id="text_9">
      <!-- 10 -->
      <g transform="translate(34.275 182.150186)scale(0.1 -0.1)">
       <use xlink:href="#DejaVuSans-31"/>
       <use x="63.623047" xlink:href="#DejaVuSans-30"/>
      </g>
     </g>
    </g>
    <g id="ytick_4">
     <g id="line2d_19">
      <path clip-path="url(#pceec6f30a2)" d="M 54 146.46827 
L 388.8 146.46827 
" style="fill:none;stroke:#b0b0b0;stroke-linecap:square;stroke-width:0.8;"/>
     </g>
     <g id="line2d_20">
      <g>
       <use style="stroke:#000000;stroke-width:0.8;" x="54" xlink:href="#mb6cdd6933c" y="146.46827"/>
      </g>
     </g>
     <g id="text_10">
      <!-- 20 -->
      <g transform="translate(34.275 150.267489)scale(0.1 -0.1)">
       <use xlink:href="#DejaVuSans-32"/>
       <use x="63.623047" xlink:href="#DejaVuSans-30"/>
      </g>
     </g>
    </g>
    <g id="ytick_5">
     <g id="line2d_21">
      <path clip-path="url(#pceec6f30a2)" d="M 54 114.585572 
L 388.8 114.585572 
" style="fill:none;stroke:#b0b0b0;stroke-linecap:square;stroke-width:0.8;"/>
     </g>
     <g id="line2d_22">
      <g>
       <use style="stroke:#000000;stroke-width:0.8;" x="54" xlink:href="#mb6cdd6933c" y="114.585572"/>
      </g>
     </g>
     <g id="text_11">
      <!-- 30 -->
      <defs>
       <path d="M 40.578125 39.3125 
Q 47.65625 37.796875 51.625 33 
Q 55.609375 28.21875 55.609375 21.1875 
Q 55.609375 10.40625 48.1875 4.484375 
Q 40.765625 -1.421875 27.09375 -1.421875 
Q 22.515625 -1.421875 17.65625 -0.515625 
Q 12.796875 0.390625 7.625 2.203125 
L 7.625 11.71875 
Q 11.71875 9.328125 16.59375 8.109375 
Q 21.484375 6.890625 26.8125 6.890625 
Q 36.078125 6.890625 40.9375 10.546875 
Q 45.796875 14.203125 45.796875 21.1875 
Q 45.796875 27.640625 41.28125 31.265625 
Q 36.765625 34.90625 28.71875 34.90625 
L 20.21875 34.90625 
L 20.21875 43.015625 
L 29.109375 43.015625 
Q 36.375 43.015625 40.234375 45.921875 
Q 44.09375 48.828125 44.09375 54.296875 
Q 44.09375 59.90625 40.109375 62.90625 
Q 36.140625 65.921875 28.71875 65.921875 
Q 24.65625 65.921875 20.015625 65.03125 
Q 15.375 64.15625 9.8125 62.3125 
L 9.8125 71.09375 
Q 15.4375 72.65625 20.34375 73.4375 
Q 25.25 74.21875 29.59375 74.21875 
Q 40.828125 74.21875 47.359375 69.109375 
Q 53.90625 64.015625 53.90625 55.328125 
Q 53.90625 49.265625 50.4375 45.09375 
Q 46.96875 40.921875 40.578125 39.3125 
z
" id="DejaVuSans-33"/>
      </defs>
      <g transform="translate(34.275 118.384791)scale(0.1 -0.1)">
       <use xlink:href="#DejaVuSans-33"/>
       <use x="63.623047" xlink:href="#DejaVuSans-30"/>
      </g>
     </g>
    </g>
    <g id="ytick_6">
     <g id="line2d_23">
      <path clip-path="url(#pceec6f30a2)" d="M 54 82.702874 
L 388.8 82.702874 
" style="fill:none;stroke:#b0b0b0;stroke-linecap:square;stroke-width:0.8;"/>
     </g>
     <g id="line2d_24">
      <g>
       <use style="stroke:#000000;stroke-width:0.8;" x="54" xlink:href="#mb6cdd6933c" y="82.702874"/>
      </g>
     </g>
     <g id="text_12">
      <!-- 40 -->
      <g transform="translate(34.275 86.502093)scale(0.1 -0.1)">
       <use xlink:href="#DejaVuSans-34"/>
       <use x="63.623047" xlink:href="#DejaVuSans-30"/>
      </g>
     </g>
    </g>
    <g id="ytick_7">
     <g id="line2d_25">
      <path clip-path="url(#pceec6f30a2)" d="M 54 50.820176 
L 388.8 50.820176 
" style="fill:none;stroke:#b0b0b0;stroke-linecap:square;stroke-width:0.8;"/>
     </g>
     <g id="line2d_26">
      <g>
       <use style="stroke:#000000;stroke-width:0.8;" x="54" xlink:href="#mb6cdd6933c" y="50.820176"/>
      </g>
     </g>
     <g id="text_13">
      <!-- 50 -->
      <defs>
       <path d="M 10.796875 72.90625 
L 49.515625 72.90625 
L 49.515625 64.59375 
L 19.828125 64.59375 
L 19.828125 46.734375 
Q 21.96875 47.46875 24.109375 47.828125 
Q 26.265625 48.1875 28.421875 48.1875 
Q 40.625 48.1875 47.75 41.5 
Q 54.890625 34.8125 54.890625 23.390625 
Q 54.890625 11.625 47.5625 5.09375 
Q 40.234375 -1.421875 26.90625 -1.421875 
Q 22.3125 -1.421875 17.546875 -0.640625 
Q 12.796875 0.140625 7.71875 1.703125 
L 7.71875 11.625 
Q 12.109375 9.234375 16.796875 8.0625 
Q 21.484375 6.890625 26.703125 6.890625 
Q 35.15625 6.890625 40.078125 11.328125 
Q 45.015625 15.765625 45.015625 23.390625 
Q 45.015625 31 40.078125 35.4375 
Q 35.15625 39.890625 26.703125 39.890625 
Q 22.75 39.890625 18.8125 39.015625 
Q 14.890625 38.140625 10.796875 36.28125 
z
" id="DejaVuSans-35"/>
      </defs>
      <g transform="translate(34.275 54.619395)scale(0.1 -0.1)">
       <use xlink:href="#DejaVuSans-35"/>
       <use x="63.623047" xlink:href="#DejaVuSans-30"/>
      </g>
     </g>
    </g>
   </g>
   <g id="line2d_27">
    <path clip-path="url(#pceec6f30a2)" d="M 69.218182 207.045396 
L 69.52285 210.233666 
L 69.827518 207.045396 
L 70.132187 210.233666 
L 70.436855 207.045396 
L 71.35086 216.610205 
L 71.655528 213.421935 
L 71.960197 216.610205 
L 72.569533 210.233666 
L 73.483538 219.798475 
L 73.788206 216.610205 
L 74.092875 219.798475 
L 75.00688 210.233666 
L 75.311548 213.421935 
L 75.616216 210.233666 
L 77.139558 226.175015 
L 77.748894 219.798475 
L 78.053563 222.986745 
L 78.358231 219.798475 
L 78.967568 226.175015 
L 79.881572 216.610205 
L 80.186241 219.798475 
L 80.490909 216.610205 
L 80.795577 219.798475 
L 81.100246 216.610205 
L 81.404914 219.798475 
L 82.318919 210.233666 
L 82.623587 213.421935 
L 83.232924 207.045396 
L 84.451597 219.798475 
L 85.974939 203.857126 
L 86.279607 207.045396 
L 87.193612 197.480587 
L 87.49828 200.668856 
L 87.802948 197.480587 
L 89.630958 216.610205 
L 89.935627 213.421935 
L 90.544963 219.798475 
L 91.1543 213.421935 
L 91.763636 219.798475 
L 92.372973 213.421935 
L 92.677641 216.610205 
L 93.591646 207.045396 
L 93.896314 210.233666 
L 94.200983 207.045396 
L 94.505651 210.233666 
L 95.114988 203.857126 
L 95.419656 207.045396 
L 95.724324 203.857126 
L 96.028993 207.045396 
L 96.638329 200.668856 
L 97.247666 207.045396 
L 97.857002 200.668856 
L 99.380344 216.610205 
L 99.685012 213.421935 
L 99.989681 216.610205 
L 100.599017 210.233666 
L 100.903686 213.421935 
L 101.208354 210.233666 
L 101.513022 213.421935 
L 101.81769 210.233666 
L 102.427027 216.610205 
L 102.731695 213.421935 
L 103.036364 216.610205 
L 104.559705 200.668856 
L 104.864373 203.857126 
L 105.169042 200.668856 
L 105.47371 203.857126 
L 105.778378 200.668856 
L 106.083047 203.857126 
L 106.387715 200.668856 
L 106.997052 207.045396 
L 107.30172 203.857126 
L 107.911057 210.233666 
L 108.215725 207.045396 
L 108.825061 213.421935 
L 110.348403 197.480587 
L 110.653071 200.668856 
L 112.481081 181.539238 
L 113.699754 194.292317 
L 114.004423 191.104047 
L 114.613759 197.480587 
L 115.527764 187.915777 
L 116.137101 194.292317 
L 116.441769 191.104047 
L 117.660442 203.857126 
L 117.965111 200.668856 
L 118.269779 203.857126 
L 118.574447 200.668856 
L 119.488452 210.233666 
L 119.79312 207.045396 
L 120.097789 210.233666 
L 121.316462 197.480587 
L 121.62113 200.668856 
L 121.925799 197.480587 
L 122.839803 207.045396 
L 123.44914 200.668856 
L 123.753808 203.857126 
L 124.058477 200.668856 
L 125.886486 219.798475 
L 126.191155 216.610205 
L 126.495823 219.798475 
L 127.409828 210.233666 
L 128.323833 219.798475 
L 128.628501 216.610205 
L 128.93317 219.798475 
L 130.456511 203.857126 
L 130.761179 207.045396 
L 131.370516 200.668856 
L 131.675184 203.857126 
L 132.589189 194.292317 
L 133.198526 200.668856 
L 133.503194 197.480587 
L 134.112531 203.857126 
L 135.635872 187.915777 
L 135.940541 191.104047 
L 136.245209 187.915777 
L 136.549877 191.104047 
L 137.159214 184.727507 
L 137.463882 187.915777 
L 138.073219 181.539238 
L 139.291892 194.292317 
L 139.901229 187.915777 
L 140.815233 197.480587 
L 141.119902 194.292317 
L 141.42457 197.480587 
L 141.729238 194.292317 
L 142.338575 200.668856 
L 143.25258 191.104047 
L 143.557248 194.292317 
L 144.166585 187.915777 
L 145.08059 197.480587 
L 145.689926 191.104047 
L 146.299263 197.480587 
L 147.213268 187.915777 
L 147.517936 191.104047 
L 148.736609 178.350968 
L 149.345946 184.727507 
L 149.650614 181.539238 
L 149.955283 184.727507 
L 150.564619 178.350968 
L 151.173956 184.727507 
L 152.087961 175.162698 
L 152.697297 181.539238 
L 153.001966 178.350968 
L 153.306634 181.539238 
L 153.915971 175.162698 
L 154.829975 184.727507 
L 156.048649 171.974428 
L 156.657985 178.350968 
L 156.962654 175.162698 
L 157.267322 178.350968 
L 157.876658 171.974428 
L 158.485995 178.350968 
L 159.095332 171.974428 
L 159.4 175.162698 
L 159.704668 171.974428 
L 160.009337 175.162698 
L 160.314005 171.974428 
L 162.446683 194.292317 
L 162.751351 191.104047 
L 163.05602 194.292317 
L 163.665356 187.915777 
L 164.579361 197.480587 
L 164.884029 194.292317 
L 165.188698 197.480587 
L 165.493366 194.292317 
L 165.798034 197.480587 
L 166.407371 191.104047 
L 167.321376 200.668856 
L 167.930713 194.292317 
L 168.540049 200.668856 
L 168.844717 197.480587 
L 169.758722 207.045396 
L 170.063391 203.857126 
L 171.282064 216.610205 
L 172.196069 207.045396 
L 172.500737 210.233666 
L 173.110074 203.857126 
L 174.024079 213.421935 
L 174.328747 210.233666 
L 174.633415 213.421935 
L 175.852088 200.668856 
L 176.461425 207.045396 
L 176.766093 203.857126 
L 177.070762 207.045396 
L 178.289435 194.292317 
L 178.898771 200.668856 
L 179.812776 191.104047 
L 180.422113 197.480587 
L 180.726781 194.292317 
L 181.03145 197.480587 
L 181.336118 194.292317 
L 182.250123 203.857126 
L 182.554791 200.668856 
L 184.078133 216.610205 
L 185.296806 203.857126 
L 185.601474 207.045396 
L 186.210811 200.668856 
L 186.515479 203.857126 
L 186.820147 200.668856 
L 187.734152 210.233666 
L 188.038821 207.045396 
L 188.343489 210.233666 
L 188.648157 207.045396 
L 188.952826 210.233666 
L 189.257494 207.045396 
L 189.562162 210.233666 
L 190.476167 200.668856 
L 191.69484 213.421935 
L 191.999509 210.233666 
L 192.304177 213.421935 
L 193.218182 203.857126 
L 194.132187 213.421935 
L 194.436855 210.233666 
L 195.046192 216.610205 
L 195.35086 213.421935 
L 195.655528 216.610205 
L 196.264865 210.233666 
L 197.17887 219.798475 
L 197.483538 216.610205 
L 198.702211 229.363284 
L 199.311548 222.986745 
L 199.920885 229.363284 
L 200.225553 226.175015 
L 200.530221 229.363284 
L 200.834889 226.175015 
L 201.139558 229.363284 
L 201.748894 222.986745 
L 202.053563 226.175015 
L 202.358231 222.986745 
L 203.272236 232.551554 
L 203.576904 229.363284 
L 204.490909 238.928094 
L 204.795577 235.739824 
L 205.404914 242.116364 
L 207.232924 222.986745 
L 207.537592 226.175015 
L 208.146929 219.798475 
L 209.060934 229.363284 
L 209.365602 226.175015 
L 210.279607 235.739824 
L 212.412285 213.421935 
L 212.716953 216.610205 
L 213.021622 213.421935 
L 213.32629 216.610205 
L 213.630958 213.421935 
L 214.544963 222.986745 
L 216.372973 203.857126 
L 216.677641 207.045396 
L 216.98231 203.857126 
L 217.286978 207.045396 
L 219.114988 187.915777 
L 219.419656 191.104047 
L 220.028993 184.727507 
L 222.161671 207.045396 
L 222.771007 200.668856 
L 224.903686 222.986745 
L 225.81769 213.421935 
L 226.122359 216.610205 
L 226.427027 213.421935 
L 226.731695 216.610205 
L 227.036364 213.421935 
L 227.6457 219.798475 
L 228.255037 213.421935 
L 229.47371 226.175015 
L 229.778378 222.986745 
L 230.083047 226.175015 
L 230.692383 219.798475 
L 230.997052 222.986745 
L 234.043735 191.104047 
L 234.653071 197.480587 
L 234.95774 194.292317 
L 235.262408 197.480587 
L 235.567076 194.292317 
L 235.871744 197.480587 
L 236.176413 194.292317 
L 236.785749 200.668856 
L 238.309091 184.727507 
L 238.613759 187.915777 
L 238.918428 184.727507 
L 239.223096 187.915777 
L 239.832432 181.539238 
L 240.137101 184.727507 
L 241.051106 175.162698 
L 241.660442 181.539238 
L 242.574447 171.974428 
L 242.879115 175.162698 
L 243.183784 171.974428 
L 243.79312 178.350968 
L 244.097789 175.162698 
L 244.402457 178.350968 
L 245.011794 171.974428 
L 245.316462 175.162698 
L 246.230467 165.597889 
L 246.535135 168.786158 
L 246.839803 165.597889 
L 247.144472 168.786158 
L 247.44914 165.597889 
L 248.363145 175.162698 
L 248.972482 168.786158 
L 249.27715 171.974428 
L 249.581818 168.786158 
L 250.800491 181.539238 
L 251.10516 178.350968 
L 251.714496 184.727507 
L 252.019165 181.539238 
L 252.323833 184.727507 
L 252.628501 181.539238 
L 253.237838 187.915777 
L 254.151843 178.350968 
L 254.456511 181.539238 
L 254.761179 178.350968 
L 256.284521 194.292317 
L 256.893857 187.915777 
L 257.198526 191.104047 
L 258.112531 181.539238 
L 258.417199 184.727507 
L 259.026536 178.350968 
L 259.331204 181.539238 
L 259.635872 178.350968 
L 259.940541 181.539238 
L 260.245209 178.350968 
L 260.549877 181.539238 
L 261.159214 175.162698 
L 262.073219 184.727507 
L 262.682555 178.350968 
L 262.987224 181.539238 
L 264.205897 168.786158 
L 264.510565 171.974428 
L 264.815233 168.786158 
L 265.42457 175.162698 
L 266.947912 159.221349 
L 267.25258 162.409619 
L 267.557248 159.221349 
L 267.861916 162.409619 
L 268.471253 156.033079 
L 268.775921 159.221349 
L 269.689926 149.65654 
L 270.299263 156.033079 
L 270.603931 152.844809 
L 271.213268 159.221349 
L 271.517936 156.033079 
L 271.822604 159.221349 
L 272.431941 152.844809 
L 272.736609 156.033079 
L 273.650614 146.46827 
L 274.564619 156.033079 
L 274.869287 152.844809 
L 275.478624 159.221349 
L 279.134644 120.962111 
L 280.048649 130.526921 
L 280.657985 124.150381 
L 280.962654 127.338651 
L 281.267322 124.150381 
L 281.57199 127.338651 
L 282.181327 120.962111 
L 282.485995 124.150381 
L 283.4 114.585572 
L 283.704668 117.773842 
L 284.314005 111.397302 
L 284.923342 117.773842 
L 285.22801 114.585572 
L 286.446683 127.338651 
L 287.360688 117.773842 
L 287.970025 124.150381 
L 288.884029 114.585572 
L 290.102703 127.338651 
L 290.407371 124.150381 
L 290.712039 127.338651 
L 291.016708 124.150381 
L 291.321376 127.338651 
L 291.930713 120.962111 
L 292.540049 127.338651 
L 293.149386 120.962111 
L 293.758722 127.338651 
L 294.063391 124.150381 
L 294.368059 127.338651 
L 294.672727 124.150381 
L 295.282064 130.526921 
L 295.8914 124.150381 
L 296.805405 133.715191 
L 297.110074 130.526921 
L 298.024079 140.09173 
L 298.633415 133.715191 
L 298.938084 136.90346 
L 299.242752 133.715191 
L 299.54742 136.90346 
L 300.156757 130.526921 
L 300.461425 133.715191 
L 301.070762 127.338651 
L 302.289435 140.09173 
L 303.508108 127.338651 
L 304.117445 133.715191 
L 304.422113 130.526921 
L 305.03145 136.90346 
L 305.336118 133.715191 
L 305.640786 136.90346 
L 306.250123 130.526921 
L 306.554791 133.715191 
L 307.468796 124.150381 
L 308.382801 133.715191 
L 308.992138 127.338651 
L 309.296806 130.526921 
L 310.820147 114.585572 
L 311.124816 117.773842 
L 311.734152 111.397302 
L 312.038821 114.585572 
L 312.343489 111.397302 
L 312.952826 117.773842 
L 313.257494 114.585572 
L 313.562162 117.773842 
L 314.171499 111.397302 
L 314.476167 114.585572 
L 314.780835 111.397302 
L 315.69484 120.962111 
L 315.999509 117.773842 
L 316.304177 120.962111 
L 316.913514 114.585572 
L 317.218182 117.773842 
L 317.52285 114.585572 
L 317.827518 117.773842 
L 318.132187 114.585572 
L 318.741523 120.962111 
L 319.35086 114.585572 
L 319.655528 117.773842 
L 321.17887 101.832493 
L 322.397543 114.585572 
L 322.702211 111.397302 
L 323.00688 114.585572 
L 323.616216 108.209032 
L 323.920885 111.397302 
L 324.225553 108.209032 
L 324.834889 114.585572 
L 325.139558 111.397302 
L 325.748894 117.773842 
L 326.358231 111.397302 
L 326.662899 114.585572 
L 326.967568 111.397302 
L 327.272236 114.585572 
L 327.576904 111.397302 
L 327.881572 114.585572 
L 328.186241 111.397302 
L 328.490909 114.585572 
L 329.709582 101.832493 
L 330.318919 108.209032 
L 330.623587 105.020762 
L 331.232924 111.397302 
L 331.537592 108.209032 
L 332.146929 114.585572 
L 332.756265 108.209032 
L 333.67027 117.773842 
L 334.888943 105.020762 
L 335.193612 108.209032 
L 335.49828 105.020762 
L 335.802948 108.209032 
L 336.107617 105.020762 
L 336.412285 108.209032 
L 337.630958 95.455953 
L 338.240295 101.832493 
L 338.849631 95.455953 
L 339.1543 98.644223 
L 339.458968 95.455953 
L 339.763636 98.644223 
L 340.068305 95.455953 
L 340.372973 98.644223 
L 340.677641 95.455953 
L 341.286978 101.832493 
L 341.591646 98.644223 
L 341.896314 101.832493 
L 342.810319 92.267683 
L 343.114988 95.455953 
L 343.419656 92.267683 
L 343.724324 95.455953 
L 344.333661 89.079413 
L 344.638329 92.267683 
L 344.942998 89.079413 
L 346.161671 101.832493 
L 346.466339 98.644223 
L 347.685012 111.397302 
L 347.989681 108.209032 
L 348.294349 111.397302 
L 350.122359 92.267683 
L 350.731695 98.644223 
L 351.341032 92.267683 
L 351.950369 98.644223 
L 352.864373 89.079413 
L 353.778378 98.644223 
L 354.692383 89.079413 
L 356.215725 105.020762 
L 357.434398 92.267683 
L 357.739066 95.455953 
L 358.95774 82.702874 
L 359.567076 89.079413 
L 359.871744 85.891144 
L 360.176413 89.079413 
L 360.481081 85.891144 
L 360.785749 89.079413 
L 361.090418 85.891144 
L 361.699754 92.267683 
L 363.527764 73.138065 
L 363.832432 76.326334 
L 364.137101 73.138065 
L 364.441769 76.326334 
L 364.746437 73.138065 
L 365.355774 79.514604 
L 365.965111 73.138065 
L 366.269779 76.326334 
L 367.488452 63.573255 
L 367.79312 66.761525 
L 368.402457 60.384985 
L 368.707125 63.573255 
L 369.011794 60.384985 
L 369.316462 63.573255 
L 370.230467 54.008446 
L 370.535135 57.196716 
L 371.753808 44.443636 
L 372.667813 54.008446 
L 373.27715 47.631906 
L 373.581818 50.820176 
L 373.581818 50.820176 
" style="fill:none;stroke:#1f77b4;stroke-linecap:square;stroke-width:1.5;"/>
   </g>
   <g id="patch_3">
    <path d="M 54 252 
L 54 34.56 
" style="fill:none;stroke:#000000;stroke-linecap:square;stroke-linejoin:miter;stroke-width:0.8;"/>
   </g>
   <g id="patch_4">
    <path d="M 388.8 252 
L 388.8 34.56 
" style="fill:none;stroke:#000000;stroke-linecap:square;stroke-linejoin:miter;stroke-width:0.8;"/>
   </g>
   <g id="patch_5">
    <path d="M 54 252 
L 388.8 252 
" style="fill:none;stroke:#000000;stroke-linecap:square;stroke-linejoin:miter;stroke-width:0.8;"/>
   </g>
   <g id="patch_6">
    <path d="M 54 34.56 
L 388.8 34.56 
" style="fill:none;stroke:#000000;stroke-linecap:square;stroke-linejoin:miter;stroke-width:0.8;"/>
   </g>
   <g id="text_14">
    <!-- Random walk of 1000 steps -->
    <defs>
     <path d="M 44.390625 34.1875 
Q 47.5625 33.109375 50.5625 29.59375 
Q 53.5625 26.078125 56.59375 19.921875 
L 66.609375 0 
L 56 0 
L 46.6875 18.703125 
Q 43.0625 26.03125 39.671875 28.421875 
Q 36.28125 30.8125 30.421875 30.8125 
L 19.671875 30.8125 
L 19.671875 0 
L 9.8125 0 
L 9.8125 72.90625 
L 32.078125 72.90625 
Q 44.578125 72.90625 50.734375 67.671875 
Q 56.890625 62.453125 56.890625 51.90625 
Q 56.890625 45.015625 53.6875 40.46875 
Q 50.484375 35.9375 44.390625 34.1875 
z
M 19.671875 64.796875 
L 19.671875 38.921875 
L 32.078125 38.921875 
Q 39.203125 38.921875 42.84375 42.21875 
Q 46.484375 45.515625 46.484375 51.90625 
Q 46.484375 58.296875 42.84375 61.546875 
Q 39.203125 64.796875 32.078125 64.796875 
z
" id="DejaVuSans-52"/>
     <path d="M 34.28125 27.484375 
Q 23.390625 27.484375 19.1875 25 
Q 14.984375 22.515625 14.984375 16.5 
Q 14.984375 11.71875 18.140625 8.90625 
Q 21.296875 6.109375 26.703125 6.109375 
Q 34.1875 6.109375 38.703125 11.40625 
Q 43.21875 16.703125 43.21875 25.484375 
L 43.21875 27.484375 
z
M 52.203125 31.203125 
L 52.203125 0 
L 43.21875 0 
L 43.21875 8.296875 
Q 40.140625 3.328125 35.546875 0.953125 
Q 30.953125 -1.421875 24.3125 -1.421875 
Q 15.921875 -1.421875 10.953125 3.296875 
Q 6 8.015625 6 15.921875 
Q 6 25.140625 12.171875 29.828125 
Q 18.359375 34.515625 30.609375 34.515625 
L 43.21875 34.515625 
L 43.21875 35.40625 
Q 43.21875 41.609375 39.140625 45 
Q 35.0625 48.390625 27.6875 48.390625 
Q 23 48.390625 18.546875 47.265625 
Q 14.109375 46.140625 10.015625 43.890625 
L 10.015625 52.203125 
Q 14.9375 54.109375 19.578125 55.046875 
Q 24.21875 56 28.609375 56 
Q 40.484375 56 46.34375 49.84375 
Q 52.203125 43.703125 52.203125 31.203125 
z
" id="DejaVuSans-61"/>
     <path d="M 54.890625 33.015625 
L 54.890625 0 
L 45.90625 0 
L 45.90625 32.71875 
Q 45.90625 40.484375 42.875 44.328125 
Q 39.84375 48.1875 33.796875 48.1875 
Q 26.515625 48.1875 22.3125 43.546875 
Q 18.109375 38.921875 18.109375 30.90625 
L 18.109375 0 
L 9.078125 0 
L 9.078125 54.6875 
L 18.109375 54.6875 
L 18.109375 46.1875 
Q 21.34375 51.125 25.703125 53.5625 
Q 30.078125 56 35.796875 56 
Q 45.21875 56 50.046875 50.171875 
Q 54.890625 44.34375 54.890625 33.015625 
z
" id="DejaVuSans-6e"/>
     <path d="M 45.40625 46.390625 
L 45.40625 75.984375 
L 54.390625 75.984375 
L 54.390625 0 
L 45.40625 0 
L 45.40625 8.203125 
Q 42.578125 3.328125 38.25 0.953125 
Q 33.9375 -1.421875 27.875 -1.421875 
Q 17.96875 -1.421875 11.734375 6.484375 
Q 5.515625 14.40625 5.515625 27.296875 
Q 5.515625 40.1875 11.734375 48.09375 
Q 17.96875 56 27.875 56 
Q 33.9375 56 38.25 53.625 
Q 42.578125 51.265625 45.40625 46.390625 
z
M 14.796875 27.296875 
Q 14.796875 17.390625 18.875 11.75 
Q 22.953125 6.109375 30.078125 6.109375 
Q 37.203125 6.109375 41.296875 11.75 
Q 45.40625 17.390625 45.40625 27.296875 
Q 45.40625 37.203125 41.296875 42.84375 
Q 37.203125 48.484375 30.078125 48.484375 
Q 22.953125 48.484375 18.875 42.84375 
Q 14.796875 37.203125 14.796875 27.296875 
z
" id="DejaVuSans-64"/>
     <path d="M 30.609375 48.390625 
Q 23.390625 48.390625 19.1875 42.75 
Q 14.984375 37.109375 14.984375 27.296875 
Q 14.984375 17.484375 19.15625 11.84375 
Q 23.34375 6.203125 30.609375 6.203125 
Q 37.796875 6.203125 41.984375 11.859375 
Q 46.1875 17.53125 46.1875 27.296875 
Q 46.1875 37.015625 41.984375 42.703125 
Q 37.796875 48.390625 30.609375 48.390625 
z
M 30.609375 56 
Q 42.328125 56 49.015625 48.375 
Q 55.71875 40.765625 55.71875 27.296875 
Q 55.71875 13.875 49.015625 6.21875 
Q 42.328125 -1.421875 30.609375 -1.421875 
Q 18.84375 -1.421875 12.171875 6.21875 
Q 5.515625 13.875 5.515625 27.296875 
Q 5.515625 40.765625 12.171875 48.375 
Q 18.84375 56 30.609375 56 
z
" id="DejaVuSans-6f"/>
     <path d="M 52 44.1875 
Q 55.375 50.25 60.0625 53.125 
Q 64.75 56 71.09375 56 
Q 79.640625 56 84.28125 50.015625 
Q 88.921875 44.046875 88.921875 33.015625 
L 88.921875 0 
L 79.890625 0 
L 79.890625 32.71875 
Q 79.890625 40.578125 77.09375 44.375 
Q 74.3125 48.1875 68.609375 48.1875 
Q 61.625 48.1875 57.5625 43.546875 
Q 53.515625 38.921875 53.515625 30.90625 
L 53.515625 0 
L 44.484375 0 
L 44.484375 32.71875 
Q 44.484375 40.625 41.703125 44.40625 
Q 38.921875 48.1875 33.109375 48.1875 
Q 26.21875 48.1875 22.15625 43.53125 
Q 18.109375 38.875 18.109375 30.90625 
L 18.109375 0 
L 9.078125 0 
L 9.078125 54.6875 
L 18.109375 54.6875 
L 18.109375 46.1875 
Q 21.1875 51.21875 25.484375 53.609375 
Q 29.78125 56 35.6875 56 
Q 41.65625 56 45.828125 52.96875 
Q 50 49.953125 52 44.1875 
z
" id="DejaVuSans-6d"/>
     <path id="DejaVuSans-20"/>
     <path d="M 4.203125 54.6875 
L 13.1875 54.6875 
L 24.421875 12.015625 
L 35.59375 54.6875 
L 46.1875 54.6875 
L 57.421875 12.015625 
L 68.609375 54.6875 
L 77.59375 54.6875 
L 63.28125 0 
L 52.6875 0 
L 40.921875 44.828125 
L 29.109375 0 
L 18.5 0 
z
" id="DejaVuSans-77"/>
     <path d="M 9.421875 75.984375 
L 18.40625 75.984375 
L 18.40625 0 
L 9.421875 0 
z
" id="DejaVuSans-6c"/>
     <path d="M 9.078125 75.984375 
L 18.109375 75.984375 
L 18.109375 31.109375 
L 44.921875 54.6875 
L 56.390625 54.6875 
L 27.390625 29.109375 
L 57.625 0 
L 45.90625 0 
L 18.109375 26.703125 
L 18.109375 0 
L 9.078125 0 
z
" id="DejaVuSans-6b"/>
     <path d="M 37.109375 75.984375 
L 37.109375 68.5 
L 28.515625 68.5 
Q 23.6875 68.5 21.796875 66.546875 
Q 19.921875 64.59375 19.921875 59.515625 
L 19.921875 54.6875 
L 34.71875 54.6875 
L 34.71875 47.703125 
L 19.921875 47.703125 
L 19.921875 0 
L 10.890625 0 
L 10.890625 47.703125 
L 2.296875 47.703125 
L 2.296875 54.6875 
L 10.890625 54.6875 
L 10.890625 58.5 
Q 10.890625 67.625 15.140625 71.796875 
Q 19.390625 75.984375 28.609375 75.984375 
z
" id="DejaVuSans-66"/>
     <path d="M 44.28125 53.078125 
L 44.28125 44.578125 
Q 40.484375 46.53125 36.375 47.5 
Q 32.28125 48.484375 27.875 48.484375 
Q 21.1875 48.484375 17.84375 46.4375 
Q 14.5 44.390625 14.5 40.28125 
Q 14.5 37.15625 16.890625 35.375 
Q 19.28125 33.59375 26.515625 31.984375 
L 29.59375 31.296875 
Q 39.15625 29.25 43.1875 25.515625 
Q 47.21875 21.78125 47.21875 15.09375 
Q 47.21875 7.46875 41.1875 3.015625 
Q 35.15625 -1.421875 24.609375 -1.421875 
Q 20.21875 -1.421875 15.453125 -0.5625 
Q 10.6875 0.296875 5.421875 2 
L 5.421875 11.28125 
Q 10.40625 8.6875 15.234375 7.390625 
Q 20.0625 6.109375 24.8125 6.109375 
Q 31.15625 6.109375 34.5625 8.28125 
Q 37.984375 10.453125 37.984375 14.40625 
Q 37.984375 18.0625 35.515625 20.015625 
Q 33.0625 21.96875 24.703125 23.78125 
L 21.578125 24.515625 
Q 13.234375 26.265625 9.515625 29.90625 
Q 5.8125 33.546875 5.8125 39.890625 
Q 5.8125 47.609375 11.28125 51.796875 
Q 16.75 56 26.8125 56 
Q 31.78125 56 36.171875 55.265625 
Q 40.578125 54.546875 44.28125 53.078125 
z
" id="DejaVuSans-73"/>
     <path d="M 18.3125 70.21875 
L 18.3125 54.6875 
L 36.8125 54.6875 
L 36.8125 47.703125 
L 18.3125 47.703125 
L 18.3125 18.015625 
Q 18.3125 11.328125 20.140625 9.421875 
Q 21.96875 7.515625 27.59375 7.515625 
L 36.8125 7.515625 
L 36.8125 0 
L 27.59375 0 
Q 17.1875 0 13.234375 3.875 
Q 9.28125 7.765625 9.28125 18.015625 
L 9.28125 47.703125 
L 2.6875 47.703125 
L 2.6875 54.6875 
L 9.28125 54.6875 
L 9.28125 70.21875 
z
" id="DejaVuSans-74"/>
     <path d="M 56.203125 29.59375 
L 56.203125 25.203125 
L 14.890625 25.203125 
Q 15.484375 15.921875 20.484375 11.0625 
Q 25.484375 6.203125 34.421875 6.203125 
Q 39.59375 6.203125 44.453125 7.46875 
Q 49.3125 8.734375 54.109375 11.28125 
L 54.109375 2.78125 
Q 49.265625 0.734375 44.1875 -0.34375 
Q 39.109375 -1.421875 33.890625 -1.421875 
Q 20.796875 -1.421875 13.15625 6.1875 
Q 5.515625 13.8125 5.515625 26.8125 
Q 5.515625 40.234375 12.765625 48.109375 
Q 20.015625 56 32.328125 56 
Q 43.359375 56 49.78125 48.890625 
Q 56.203125 41.796875 56.203125 29.59375 
z
M 47.21875 32.234375 
Q 47.125 39.59375 43.09375 43.984375 
Q 39.0625 48.390625 32.421875 48.390625 
Q 24.90625 48.390625 20.390625 44.140625 
Q 15.875 39.890625 15.1875 32.171875 
z
" id="DejaVuSans-65"/>
     <path d="M 18.109375 8.203125 
L 18.109375 -20.796875 
L 9.078125 -20.796875 
L 9.078125 54.6875 
L 18.109375 54.6875 
L 18.109375 46.390625 
Q 20.953125 51.265625 25.265625 53.625 
Q 29.59375 56 35.59375 56 
Q 45.5625 56 51.78125 48.09375 
Q 58.015625 40.1875 58.015625 27.296875 
Q 58.015625 14.40625 51.78125 6.484375 
Q 45.5625 -1.421875 35.59375 -1.421875 
Q 29.59375 -1.421875 25.265625 0.953125 
Q 20.953125 3.328125 18.109375 8.203125 
z
M 48.6875 27.296875 
Q 48.6875 37.203125 44.609375 42.84375 
Q 40.53125 48.484375 33.40625 48.484375 
Q 26.265625 48.484375 22.1875 42.84375 
Q 18.109375 37.203125 18.109375 27.296875 
Q 18.109375 17.390625 22.1875 11.75 
Q 26.265625 6.109375 33.40625 6.109375 
Q 40.53125 6.109375 44.609375 11.75 
Q 48.6875 17.390625 48.6875 27.296875 
z
" id="DejaVuSans-70"/>
    </defs>
    <g transform="translate(137.918438 28.56)scale(0.12 -0.12)">
     <use xlink:href="#DejaVuSans-52"/>
     <use x="69.451172" xlink:href="#DejaVuSans-61"/>
     <use x="130.730469" xlink:href="#DejaVuSans-6e"/>
     <use x="194.109375" xlink:href="#DejaVuSans-64"/>
     <use x="257.585938" xlink:href="#DejaVuSans-6f"/>
     <use x="318.767578" xlink:href="#DejaVuSans-6d"/>
     <use x="416.179688" xlink:href="#DejaVuSans-20"/>
     <use x="447.966797" xlink:href="#DejaVuSans-77"/>
     <use x="529.753906" xlink:href="#DejaVuSans-61"/>
     <use x="591.033203" xlink:href="#DejaVuSans-6c"/>
     <use x="618.816406" xlink:href="#DejaVuSans-6b"/>
     <use x="676.726562" xlink:href="#DejaVuSans-20"/>
     <use x="708.513672" xlink:href="#DejaVuSans-6f"/>
     <use x="769.695312" xlink:href="#DejaVuSans-66"/>
     <use x="804.900391" xlink:href="#DejaVuSans-20"/>
     <use x="836.6875" xlink:href="#DejaVuSans-31"/>
     <use x="900.310547" xlink:href="#DejaVuSans-30"/>
     <use x="963.933594" xlink:href="#DejaVuSans-30"/>
     <use x="1027.556641" xlink:href="#DejaVuSans-30"/>
     <use x="1091.179688" xlink:href="#DejaVuSans-20"/>
     <use x="1122.966797" xlink:href="#DejaVuSans-73"/>
     <use x="1175.066406" xlink:href="#DejaVuSans-74"/>
     <use x="1214.275391" xlink:href="#DejaVuSans-65"/>
     <use x="1275.798828" xlink:href="#DejaVuSans-70"/>
     <use x="1339.275391" xlink:href="#DejaVuSans-73"/>
    </g>
   </g>
  </g>
 </g>
 <defs>
  <clipPath id="pceec6f30a2">
   <rect height="217.44" width="334.8" x="54" y="34.56"/>
  </clipPath>
 </defs>
</svg>
